<svg width="1920" height="905" viewBox="0 0 1920 905" fill="none" xmlns="http://www.w3.org/2000/svg">
<g clip-path="url(#clip0_25_80)">
<rect y="452.343" width="1920" height="452.657" fill="#315B5E"/>
<mask id="path-2-inside-1_25_80" fill="white">
<path d="M1466.66 452.343L2110 -191L2753.34 452.343L2110 1095.69L1466.66 452.343Z"/>
</mask>
<path d="M1466.66 452.343L2110 -191L2753.34 452.343L2110 1095.69L1466.66 452.343Z" fill="#2F2D2D"/>
<path d="M1466.66 452.343L1465.24 450.929L1463.83 452.343L1465.24 453.757L1466.66 452.343ZM1466.66 452.343L1468.07 453.757L2111.41 -189.586L2110 -191L2108.59 -192.414L1465.24 450.929L1466.66 452.343ZM2110 1095.69L2111.41 1094.27L1468.07 450.929L1466.66 452.343L1465.24 453.757L2108.59 1097.1L2110 1095.69Z" fill="#E0E0E0" mask="url(#path-2-inside-1_25_80)"/>
</g>
<defs>
<clipPath id="clip0_25_80">
<rect width="1920" height="905" fill="white"/>
</clipPath>
</defs>
</svg>
